# xmcd
#
# Track frame offsets:
#	150
#	17357
#	39197
#	55825
#	75365
#	92665
#	114610
#	133475
#	149895
#	167205
#	181950
#	204300
#
# Disc length: 2971 seconds
#
# Revision: 9
# Processed by: cddbd v1.5.2PL0 Copyright (c) Steve Scherf et al.
# Submitted via: EasyCDDAExtractor 15.3.0.1
#
DISCID=9f0b990c
DTITLE=Gloria Estefan - Cuts Both Ways
DYEAR=1989
DGENRE=Pop
TTITLE0=Ay, Ay, I
TTITLE1=Here We Are
TTITLE2=Say
TTITLE3=Think About You Now
TTITLE4=Nothin' New
TTITLE5=Oye Mi Canto (Hear My Voice) (English Version)
TTITLE6=Don't Wanna Lose You
TTITLE7=Get On Your Feet
TTITLE8=Your Love Is Bad For Me
TTITLE9=Cuts Both Ways
TTITLE10=Oye Mi Canto (Spanish Version)
TTITLE11=Si Voy A Perderte
EXTD=
EXTT0=
EXTT1=
EXTT2=
EXTT3=
EXTT4=
EXTT5=
EXTT6=
EXTT7=
EXTT8=
EXTT9=
EXTT10=
EXTT11=
PLAYORDER=
